<?xml version="1.0" encoding="UTF-8"?>
<svg id="Layer_2" data-name="Layer 2" xmlns="http://www.w3.org/2000/svg" viewBox="0 0 70 70">
  <defs>
    <style>
      .cls-1 {
        fill: #2091ef;
      }
    </style>
  </defs>
  <g id="Layer_1-2" data-name="Layer 1">
    <g>
      <path class="cls-1" d="m44.5,27.33v15.35c0,1.01-.82,1.82-1.83,1.82h-15.35c-1.01,0-1.82-.81-1.82-1.82v-15.35c0-1.01.81-1.83,1.82-1.83h15.35c1.01,0,1.83.82,1.83,1.83Z"/>
      <path class="cls-1" d="m70,7.05v22.2h-14v-10.86c0-2.42-1.97-4.39-4.39-4.39H18.39c-2.43,0-4.39,1.97-4.39,4.39v51.61h-6.96c-3.89,0-7.04-3.15-7.04-7.04V7.05C0,3.16,3.15,0,7.04,0h55.91c3.89,0,7.05,3.16,7.05,7.05Z"/>
      <path class="cls-1" d="m56,40.75h14v22.21c0,3.89-3.16,7.04-7.05,7.04H25.5v-14h26.11c2.42,0,4.39-1.96,4.39-4.39v-10.86Z"/>
      <path class="cls-1" d="m44.5,27.33v15.35c0,1.01-.82,1.82-1.83,1.82h-15.35c-1.01,0-1.82-.81-1.82-1.82v-15.35c0-1.01.81-1.83,1.82-1.83h15.35c1.01,0,1.83.82,1.83,1.83Z"/>
      <path class="cls-1" d="m44.5,27.33v15.35c0,1.01-.82,1.82-1.83,1.82h-15.35c-1.01,0-1.82-.81-1.82-1.82v-15.35c0-1.01.81-1.83,1.82-1.83h15.35c1.01,0,1.83.82,1.83,1.83Z"/>
    </g>
  </g>
</svg>